<svg id="a6373082-b0ad-4ccb-9b8b-1040eb53b831" data-name="Calque 1" xmlns="http://www.w3.org/2000/svg" xmlns:xlink="http://www.w3.org/1999/xlink" viewBox="0 0 436 245"><defs><style>.e0c7e0b1-4d4e-4687-b70f-c41360f223ac{fill:#fff;}.be9c1686-6295-4793-af29-eb87edd6444e{fill:none;stroke:#000;stroke-miterlimit:10;stroke-width:0.5px;}.e9839faa-98a5-44bb-b2b8-40d287c951b6{fill:url(#fb28049f-f1e3-43f7-8445-384e187d3fb0);}.f623e18d-a426-4666-8abe-b3923622aeba{fill:url(#b1819be7-e145-438d-86e0-d5efb3866ca6);}.a5826f18-03c0-4408-97b6-36345b133e4e{fill:url(#bf928f43-29e5-48e3-8b57-048a5d80ff63);}.e2429151-667a-4f89-85b0-156f2985dc93{fill:url(#a342dec4-3ea7-4969-a5ef-6f771607b540);}.b95961ed-d313-4311-8971-39a5b9520833{fill:url(#aa71479c-a77e-48d3-b31c-15d893d07608);}.abe20675-fd45-45a3-bc14-17cc82428a52{fill:url(#b28e0940-54f8-49b8-a315-5306b86d365d);}.acb6f93f-3b46-4d93-9509-04d8ce817548{fill:url(#bc76a66c-5278-4a54-8dc8-e5ff8f82dd3b);}.f0e9dbb8-c7a4-4991-a9c0-a88aef69e59b{fill:url(#ab14c545-31a7-432c-b723-0912244e4f49);}.ed6fbadb-ced0-4b0e-8eef-8d9da60cf615{fill:url(#b8d2c110-c6af-4cb0-b4eb-eb8fb02c3d17);}.a494278f-bb38-4a7d-bb39-9b718d454cf9{fill:url(#f46f8f6a-a54a-4c0c-9223-96f3e417d690);}.a0487a32-846a-49df-a7ad-609311d1406e{fill:url(#f7876794-3aef-4352-9421-bff976dda9e8);}.ebd4ccd9-871d-4773-b827-95388ff5be0b{fill:url(#e4eccf30-26a1-4c02-8ec7-60a934dd0801);}.a9abd06f-3c37-4ca8-8345-cc27cb1269c9{fill:url(#a5d14a55-aa92-41bf-8eeb-8ccd501ab755);}.b1154cb6-5202-48a7-8dc3-55daa2e448e6{fill:url(#f7cc38a8-c47e-4f87-99c8-c37c3c4f54a8);}.ac65cf79-9fcd-4609-af8a-c2eda753117f{fill:url(#b8fa9bff-8fc7-469f-b237-3a5fe2461d42);}.b12b95a2-71f0-4167-8f59-07a4dc761a69{fill:url(#e7a4cc04-fc39-40ae-98fe-9f2c00c43625);}.a7cf6e2d-7107-4863-8952-6b6cecd0dfda{fill:url(#ad7c8f34-06dd-48fc-83ba-314f48b83642);}.b2c7e554-4a57-4468-8075-bba0988531d0{fill:url(#adee645a-55cc-4c41-9949-062e618434af);}.a7a81d98-30d3-41a3-92fc-6f4e147e5d81{fill:url(#f098bf6a-113c-4f6b-ad77-4a0e799b7043);}.f7d88a52-20fd-411e-ba97-12e3e2ae7be4{fill:url(#a56b174c-a931-4267-84c8-ad03a21b8cf6);}.a536b23e-0e8a-43ea-845e-922d829fedf7{fill:url(#a98319e3-d7a1-4904-8c89-468f6ddb2695);}.b996edeb-ad62-4870-acb7-975bf91f3649{fill:url(#fe6a21eb-b149-4b98-9b0a-f25c5d39f7fa);}.f133838d-51da-4a7f-8192-b78c520a8de5{fill:url(#f6ca1d9f-99e8-418e-9b69-2f24c5c3e021);}.ba9035f5-d60f-49f3-92d4-85794f136176{fill:url(#a6682776-dc7e-4e48-84dd-5f2e1de63933);}.b4364d8f-8c50-4a4c-9cac-8584651c2e85{fill:url(#b6d6f473-4ce7-4c26-930f-7f552262df31);}.ac2120cb-8c3d-436a-808c-15b4056b7bf8{fill:url(#a5dcdb4f-e357-4bf3-93df-c53809491142);}.aa7db6d3-702b-46ad-a33b-16dac93c75f0{fill:url(#b166571e-7a45-4b51-a054-23224d4d65ea);}.ee67aa00-0c3b-423a-b9a9-0bcf480ff5d1{fill:url(#a3f5130b-ed93-4701-9e4a-8382b9dab0fe);}</style><linearGradient id="fb28049f-f1e3-43f7-8445-384e187d3fb0" x1="38.4" y1="63.85" x2="223.63" y2="63.85" gradientUnits="userSpaceOnUse"><stop offset="0" stop-color="#69bfaf"/><stop offset="0.09" stop-color="#69bfaf"/><stop offset="0.73" stop-color="#8cffea"/><stop offset="0.99" stop-color="#69bfaf"/></linearGradient><linearGradient id="b1819be7-e145-438d-86e0-d5efb3866ca6" x1="130.34" y1="50.24" x2="329.95" y2="50.24" xlink:href="#fb28049f-f1e3-43f7-8445-384e187d3fb0"/><linearGradient id="bf928f43-29e5-48e3-8b57-048a5d80ff63" x1="314.33" y1="60.8" x2="421.55" y2="60.8" xlink:href="#fb28049f-f1e3-43f7-8445-384e187d3fb0"/><linearGradient id="a342dec4-3ea7-4969-a5ef-6f771607b540" x1="188.5" y1="32.38" x2="305.85" y2="32.38" xlink:href="#fb28049f-f1e3-43f7-8445-384e187d3fb0"/><linearGradient id="aa71479c-a77e-48d3-b31c-15d893d07608" x1="114.87" y1="56.03" x2="116.57" y2="56.03" xlink:href="#fb28049f-f1e3-43f7-8445-384e187d3fb0"/><linearGradient id="b28e0940-54f8-49b8-a315-5306b86d365d" x1="107.4" y1="56.57" x2="126.14" y2="56.57" xlink:href="#fb28049f-f1e3-43f7-8445-384e187d3fb0"/><linearGradient id="bc76a66c-5278-4a54-8dc8-e5ff8f82dd3b" x1="109.6" y1="55.79" x2="121.09" y2="55.79" xlink:href="#fb28049f-f1e3-43f7-8445-384e187d3fb0"/><linearGradient id="ab14c545-31a7-432c-b723-0912244e4f49" x1="110.11" y1="55.68" x2="122.09" y2="55.68" xlink:href="#fb28049f-f1e3-43f7-8445-384e187d3fb0"/><linearGradient id="b8d2c110-c6af-4cb0-b4eb-eb8fb02c3d17" x1="242.91" y1="89.62" x2="244.61" y2="89.62" xlink:href="#fb28049f-f1e3-43f7-8445-384e187d3fb0"/><linearGradient id="f46f8f6a-a54a-4c0c-9223-96f3e417d690" x1="235.43" y1="90.15" x2="254.18" y2="90.15" xlink:href="#fb28049f-f1e3-43f7-8445-384e187d3fb0"/><linearGradient id="f7876794-3aef-4352-9421-bff976dda9e8" x1="237.64" y1="89.37" x2="249.13" y2="89.37" xlink:href="#fb28049f-f1e3-43f7-8445-384e187d3fb0"/><linearGradient id="e4eccf30-26a1-4c02-8ec7-60a934dd0801" x1="238.15" y1="89.27" x2="250.13" y2="89.27" xlink:href="#fb28049f-f1e3-43f7-8445-384e187d3fb0"/><linearGradient id="a5d14a55-aa92-41bf-8eeb-8ccd501ab755" x1="215.91" y1="35.62" x2="217.61" y2="35.62" xlink:href="#fb28049f-f1e3-43f7-8445-384e187d3fb0"/><linearGradient id="f7cc38a8-c47e-4f87-99c8-c37c3c4f54a8" x1="208.43" y1="36.15" x2="227.18" y2="36.15" xlink:href="#fb28049f-f1e3-43f7-8445-384e187d3fb0"/><linearGradient id="b8fa9bff-8fc7-469f-b237-3a5fe2461d42" x1="210.64" y1="35.37" x2="222.13" y2="35.37" xlink:href="#fb28049f-f1e3-43f7-8445-384e187d3fb0"/><linearGradient id="e7a4cc04-fc39-40ae-98fe-9f2c00c43625" x1="211.15" y1="35.27" x2="223.13" y2="35.27" xlink:href="#fb28049f-f1e3-43f7-8445-384e187d3fb0"/><linearGradient id="ad7c8f34-06dd-48fc-83ba-314f48b83642" x1="359.35" y1="110.62" x2="361.05" y2="110.62" xlink:href="#fb28049f-f1e3-43f7-8445-384e187d3fb0"/><linearGradient id="adee645a-55cc-4c41-9949-062e618434af" x1="351.88" y1="111.15" x2="370.62" y2="111.15" xlink:href="#fb28049f-f1e3-43f7-8445-384e187d3fb0"/><linearGradient id="f098bf6a-113c-4f6b-ad77-4a0e799b7043" x1="354.08" y1="110.37" x2="365.57" y2="110.37" xlink:href="#fb28049f-f1e3-43f7-8445-384e187d3fb0"/><linearGradient id="a56b174c-a931-4267-84c8-ad03a21b8cf6" x1="354.59" y1="110.27" x2="366.57" y2="110.27" xlink:href="#fb28049f-f1e3-43f7-8445-384e187d3fb0"/><linearGradient id="a98319e3-d7a1-4904-8c89-468f6ddb2695" x1="382.79" y1="50.62" x2="384.49" y2="50.62" xlink:href="#fb28049f-f1e3-43f7-8445-384e187d3fb0"/><linearGradient id="fe6a21eb-b149-4b98-9b0a-f25c5d39f7fa" x1="375.32" y1="51.15" x2="394.06" y2="51.15" xlink:href="#fb28049f-f1e3-43f7-8445-384e187d3fb0"/><linearGradient id="f6ca1d9f-99e8-418e-9b69-2f24c5c3e021" x1="377.52" y1="50.37" x2="389.01" y2="50.37" xlink:href="#fb28049f-f1e3-43f7-8445-384e187d3fb0"/><linearGradient id="a6682776-dc7e-4e48-84dd-5f2e1de63933" x1="378.03" y1="50.27" x2="390.01" y2="50.27" xlink:href="#fb28049f-f1e3-43f7-8445-384e187d3fb0"/><linearGradient id="b6d6f473-4ce7-4c26-930f-7f552262df31" x1="61.4" y1="105.62" x2="63.1" y2="105.62" xlink:href="#fb28049f-f1e3-43f7-8445-384e187d3fb0"/><linearGradient id="a5dcdb4f-e357-4bf3-93df-c53809491142" x1="53.93" y1="106.15" x2="72.67" y2="106.15" xlink:href="#fb28049f-f1e3-43f7-8445-384e187d3fb0"/><linearGradient id="b166571e-7a45-4b51-a054-23224d4d65ea" x1="56.13" y1="105.37" x2="67.62" y2="105.37" xlink:href="#fb28049f-f1e3-43f7-8445-384e187d3fb0"/><linearGradient id="a3f5130b-ed93-4701-9e4a-8382b9dab0fe" x1="56.64" y1="105.27" x2="68.62" y2="105.27" xlink:href="#fb28049f-f1e3-43f7-8445-384e187d3fb0"/></defs><title>Plan de travail 1</title><path class="e0c7e0b1-4d4e-4687-b70f-c41360f223ac" d="M199.93,96.85l-1.58,1.7c-2.47,4.15-5.12,8.47-9.28,10.92s-10.33,2.21-13-1.8a53.79,53.79,0,0,1-15.7,22.06c-1.35,1.13-3.55,2.14-4.65.76a56.34,56.34,0,0,0-9.94,17.3,8.23,8.23,0,0,1,5.12,1.39q-8.92,9.25-18.24,18.16l-3.12-3.93-8.29,5.2a30.34,30.34,0,0,1-1.86-11.4l-1.09-.85a472.82,472.82,0,0,1,68.47-71.6l.62-.18Q193.55,90.82,199.93,96.85Z"/><path d="M257.93,144.17q-1.6,7.94-3.19,15.88c-.56,2.78-1.29,5.84-3.63,7.43-4.58,3.11-12.58-1.13-15.55,3.53-1.73,2.72-.11,6.69-1.95,9.34a8.35,8.35,0,0,1-3.7,2.54c-4.55,2-9.18,4.1-14.13,4.71s-10.34-.43-13.92-3.9c-1.73-1.67-4.24-4-6-2.4a4.13,4.13,0,0,0-1,2q-2.54,8.63-5.08,17.24c-1.21,4.13-2,9.55,1.63,11.88,2,1.26,4.48,1,6.79.74l18.18-2.26a4.55,4.55,0,0,0,3.2-1.29c1.39-1.78-.39-4.4.15-6.59.74-3,5-3.23,8-2.35s6.61,2.06,8.84-.1c1.58-1.51,1.6-4,2-6.11s2-4.57,4.18-4.18a11.82,11.82,0,0,1,1.87.72c4,1.45,7.35-3,10.71-5.6A14.32,14.32,0,0,1,274,187a47.42,47.42,0,0,0-.07-36.23L287,153.41a3.65,3.65,0,0,0,2.17,0c1.42-.6,1.5-2.52,1.62-4.06.37-4.88,3.32-9.12,5.11-13.68a29.93,29.93,0,0,0,.62-20l-1.24-1.43a3.39,3.39,0,0,1,2.16-1,3.43,3.43,0,0,1,2.24,1.59,219.37,219.37,0,0,0,39.91,38.48,34.37,34.37,0,0,1,6.57,5.75c4.39,5.47,4.76,13.18,8.3,19.24l.73,1.21q23,22.75,43.92,47.52l.29.26c-1.34,1.46-2.67,2.92-4,4.37l-.55,2.37c-.48,2.07,1.52,4,3.62,4.33s4.15-.67,6-1.69,3.73-2.17,5.84-2.38c1.81-.19,3.87.29,5.29-.85s1.41-3.23.85-4.91-1.58-3.2-1.92-4.93.3-3.89,2-4.41l.76-.94a63.83,63.83,0,0,1,10.27,10.83,37.6,37.6,0,0,1,7.06,14.51l-1,1.52H-.45L-.82,244A97.85,97.85,0,0,1,3,233.8l1.56.68A149.21,149.21,0,0,0,26.37,221c-1.11-1.9-4.53-1.31-5.48-3.29a4,4,0,0,1-.06-2.46l1.59-8.52-1.48-.43a16.53,16.53,0,0,1,6.14-4c7.14-2.38,14.6,2.22,20.46,6.94l.86.43q3.59-7.19,7.38-14.29l.09,0,15.75,12.21c.8.62,1.93,1.25,2.73.63A2.37,2.37,0,0,0,75,207c.9-3.49,1.81-7.13,1-10.65-.95-4.34-4.32-7.8-5.55-12.07a1.91,1.91,0,0,1-.06-1.13c.52-1.44,3.3-.35,4-1.72a2.15,2.15,0,0,0,.14-.91q.06-9.06.1-18.14,2.46-4,5-8a3.06,3.06,0,0,1,1.62-1.53,3.07,3.07,0,0,1,2.37.77,220.21,220.21,0,0,1,21,16.25l2.38,1.7q5.48-7.71,11.26-15.19l1.09.85a30.34,30.34,0,0,0,1.86,11.4l8.29-5.2,3.12,3.93q9.31-8.9,18.24-18.16a8.23,8.23,0,0,0-5.12-1.39,56.34,56.34,0,0,1,9.94-17.3c1.1,1.38,3.3.37,4.65-.76a53.79,53.79,0,0,0,15.7-22.06c2.69,4,8.85,4.24,13,1.8s6.81-6.77,9.28-10.92l1.58-1.7a516.73,516.73,0,0,0,58,47.31Zm59.57,69.54a60.63,60.63,0,0,0,11,10.63,2.76,2.76,0,0,0,2.34.77,2.7,2.7,0,0,0,1.2-1,169.35,169.35,0,0,0,12.58-17.19,3.16,3.16,0,0,0,.71-2.16c-.28-1.54-2.38-1.74-3.94-1.59-3.71.35-7.44.54-11.17.56a3.17,3.17,0,0,1-1.83-.36,3.24,3.24,0,0,1-1-1.45,172.15,172.15,0,0,1-7.32-20.8q-1.44,16.05-2.1,32.16Z"/><path class="e0c7e0b1-4d4e-4687-b70f-c41360f223ac" d="M417.25,218.27l-.76.94c-1.69.52-2.33,2.67-2,4.41s1.36,3.26,1.92,4.93.53,3.8-.85,4.91-3.48.66-5.29.85c-2.11.21-4,1.36-5.84,2.38s-3.91,2-6,1.69-4.1-2.26-3.62-4.33l.55-2.37c1.34-1.45,2.67-2.91,4-4.37l10.87-11.85a2,2,0,0,1,3.22-.12C414.76,216.27,416,217.24,417.25,218.27Z"/><path class="e0c7e0b1-4d4e-4687-b70f-c41360f223ac" d="M345.35,204.78a3.16,3.16,0,0,1-.71,2.16,169.35,169.35,0,0,1-12.58,17.19,2.7,2.7,0,0,1-1.2,1,2.76,2.76,0,0,1-2.34-.77,60.63,60.63,0,0,1-11-10.63l.52-.41q.66-16.1,2.1-32.16a172.15,172.15,0,0,0,7.32,20.8,3.24,3.24,0,0,0,1,1.45,3.17,3.17,0,0,0,1.83.36c3.73,0,7.46-.21,11.17-.56C343,203,345.07,203.24,345.35,204.78Z"/><path class="e0c7e0b1-4d4e-4687-b70f-c41360f223ac" d="M257.93,144.16l37.32-29.9,1.24,1.43a29.93,29.93,0,0,1-.62,20c-1.79,4.56-4.74,8.8-5.11,13.68-.12,1.54-.2,3.46-1.62,4.06a3.65,3.65,0,0,1-2.17,0l-13.09-2.67A47.42,47.42,0,0,1,274,187a14.32,14.32,0,0,0-18.67-1.61c-3.36,2.59-6.72,7-10.71,5.6a11.82,11.82,0,0,0-1.87-.72c-2.15-.39-3.75,2-4.18,4.18s-.45,4.6-2,6.11c-2.23,2.16-5.86,1-8.84.1s-7.21-.67-8,2.35c-.54,2.19,1.24,4.81-.15,6.59a4.55,4.55,0,0,1-3.2,1.29l-18.18,2.26c-2.31.28-4.83.52-6.79-.74-3.62-2.33-2.84-7.75-1.63-11.88q2.55-8.62,5.08-17.24a4.13,4.13,0,0,1,1-2c1.79-1.61,4.3.73,6,2.4,3.58,3.47,9,4.51,13.92,3.9s9.58-2.67,14.13-4.71a8.35,8.35,0,0,0,3.7-2.54c1.84-2.65.22-6.62,1.95-9.34,3-4.66,11-.42,15.55-3.53,2.34-1.59,3.07-4.65,3.63-7.43q1.59-7.94,3.19-15.88Z"/><path class="e0c7e0b1-4d4e-4687-b70f-c41360f223ac" d="M76.07,196.32c.77,3.52-.14,7.16-1,10.65a2.37,2.37,0,0,1-.68,1.32c-.8.62-1.93,0-2.73-.63L55.87,195.45l-.09,0q8.94-16.82,18.89-33.05,0,9.08-.1,18.14a2.15,2.15,0,0,1-.14.91c-.67,1.37-3.45.28-4,1.72a1.91,1.91,0,0,0,.06,1.13C71.75,188.52,75.12,192,76.07,196.32Z"/><path class="e0c7e0b1-4d4e-4687-b70f-c41360f223ac" d="M20.89,217.73c.95,2,4.37,1.39,5.48,3.29A149.21,149.21,0,0,1,4.58,234.48L3,233.8a101.2,101.2,0,0,1,14.9-24.16,41.11,41.11,0,0,1,3-3.32l1.48.43-1.59,8.52A4,4,0,0,0,20.89,217.73Z"/><path class="be9c1686-6295-4793-af29-eb87edd6444e" d="M3,233.8a101.2,101.2,0,0,1,14.9-24.16,41.11,41.11,0,0,1,3-3.32"/><path class="be9c1686-6295-4793-af29-eb87edd6444e" d="M55.78,195.4q8.94-16.82,18.89-33.05"/><path class="be9c1686-6295-4793-af29-eb87edd6444e" d="M48.4,209.69c-.07.13-.14.26-.2.39"/><path class="be9c1686-6295-4793-af29-eb87edd6444e" d="M118.28,156.36a472.82,472.82,0,0,1,68.47-71.6"/><path class="be9c1686-6295-4793-af29-eb87edd6444e" d="M3,233.8A97.85,97.85,0,0,0-.82,244l.37,1.13h434l1-1.52a37.6,37.6,0,0,0-7.06-14.51,63.83,63.83,0,0,0-10.27-10.83l-.76.94c-1.69.52-2.33,2.67-2,4.41s1.36,3.26,1.92,4.93.53,3.8-.85,4.91-3.48.66-5.29.85c-2.11.21-4,1.36-5.84,2.38s-3.91,2-6,1.69-4.1-2.26-3.62-4.33l.55-2.37c1.34-1.45,2.67-2.91,4-4.37l-.29-.26q-20.88-24.74-43.92-47.52l-.73-1.21c-3.54-6.06-3.91-13.77-8.3-19.24a34.37,34.37,0,0,0-6.57-5.75,219.37,219.37,0,0,1-39.91-38.48,3.43,3.43,0,0,0-2.24-1.59,3.39,3.39,0,0,0-2.16,1l1.24,1.43a29.93,29.93,0,0,1-.62,20c-1.79,4.56-4.74,8.8-5.11,13.68-.12,1.54-.2,3.46-1.62,4.06a3.65,3.65,0,0,1-2.17,0l-13.09-2.67A47.42,47.42,0,0,1,274,187a14.32,14.32,0,0,0-18.67-1.61c-3.36,2.59-6.72,7-10.71,5.6a11.82,11.82,0,0,0-1.87-.72c-2.15-.39-3.75,2-4.18,4.18s-.45,4.6-2,6.11c-2.23,2.16-5.86,1-8.84.1s-7.21-.67-8,2.35c-.54,2.19,1.24,4.81-.15,6.59a4.55,4.55,0,0,1-3.2,1.29l-18.18,2.26c-2.31.28-4.83.52-6.79-.74-3.62-2.33-2.84-7.75-1.63-11.88q2.55-8.62,5.08-17.24a4.13,4.13,0,0,1,1-2c1.79-1.61,4.3.73,6,2.4,3.58,3.47,9,4.51,13.92,3.9s9.58-2.67,14.13-4.71a8.35,8.35,0,0,0,3.7-2.54c1.84-2.65.22-6.62,1.95-9.34,3-4.66,11-.42,15.55-3.53,2.34-1.59,3.07-4.65,3.63-7.43q1.59-7.94,3.19-15.88h0a516.73,516.73,0,0,1-58-47.31l-1.58,1.7c-2.47,4.15-5.12,8.47-9.28,10.92s-10.33,2.21-13-1.8a53.79,53.79,0,0,1-15.7,22.06c-1.35,1.13-3.55,2.14-4.65.76a56.34,56.34,0,0,0-9.94,17.3,8.23,8.23,0,0,1,5.12,1.39q-8.92,9.25-18.24,18.16l-3.12-3.93-8.29,5.2a30.34,30.34,0,0,1-1.86-11.4l-1.09-.85q-5.77,7.48-11.26,15.19l-2.38-1.7a220.21,220.21,0,0,0-21-16.25,3.07,3.07,0,0,0-2.37-.77,3.06,3.06,0,0,0-1.62,1.53q-2.52,4-5,8,0,9.08-.1,18.14a2.15,2.15,0,0,1-.14.91c-.67,1.37-3.45.28-4,1.72a1.91,1.91,0,0,0,.06,1.13c1.23,4.27,4.6,7.73,5.55,12.07.77,3.52-.14,7.16-1,10.65a2.37,2.37,0,0,1-.68,1.32c-.8.62-1.93,0-2.73-.63L55.87,195.45l-.09,0Q52,202.5,48.4,209.69l-.86-.43c-5.86-4.72-13.32-9.32-20.46-6.94a16.53,16.53,0,0,0-6.14,4l1.48.43-1.59,8.52a4,4,0,0,0,.06,2.46c.95,2,4.37,1.39,5.48,3.29A149.21,149.21,0,0,1,4.58,234.48Z"/><path class="be9c1686-6295-4793-af29-eb87edd6444e" d="M344.64,206.94a169.35,169.35,0,0,1-12.58,17.19,2.7,2.7,0,0,1-1.2,1,2.76,2.76,0,0,1-2.34-.77,60.63,60.63,0,0,1-11-10.63l.52-.41q.66-16.1,2.1-32.16a172.15,172.15,0,0,0,7.32,20.8,3.24,3.24,0,0,0,1,1.45,3.17,3.17,0,0,0,1.83.36c3.73,0,7.46-.21,11.17-.56,1.56-.15,3.66.05,3.94,1.59A3.16,3.16,0,0,1,344.64,206.94Z"/><path class="be9c1686-6295-4793-af29-eb87edd6444e" d="M107,171.55l-.1.14"/><path class="be9c1686-6295-4793-af29-eb87edd6444e" d="M258.91,144.85l-1-.69"/><path class="be9c1686-6295-4793-af29-eb87edd6444e" d="M199.93,96.85q-6.37-6-12.56-12.27"/><path class="be9c1686-6295-4793-af29-eb87edd6444e" d="M295.25,114.26l-37.32,29.9"/><path class="be9c1686-6295-4793-af29-eb87edd6444e" d="M257.93,144.17l-.32.25"/><path class="be9c1686-6295-4793-af29-eb87edd6444e" d="M399.37,227.31l10.87-11.85a2,2,0,0,1,3.22-.12c1.3.93,2.56,1.9,3.79,2.93"/><path class="be9c1686-6295-4793-af29-eb87edd6444e" d="M74.68,161.25c0,.37,0,.73,0,1.1"/><path class="be9c1686-6295-4793-af29-eb87edd6444e" d="M258,144l0,.16"/><path class="be9c1686-6295-4793-af29-eb87edd6444e" d="M317.5,213.71c-.4-.47-.77-1-1.14-1.44"/><path class="e9839faa-98a5-44bb-b2b8-40d287c951b6" d="M41.27,42.64l2.55-1.1c-.09,0-.48.2,0,0l.86-.35c.5-.21,1-.41,1.52-.6a49.38,49.38,0,0,1,5.72-1.82c.9-.21,1.8-.39,2.71-.54-.68.11.43,0,.63-.06.46,0,.92-.06,1.38-.08a21.38,21.38,0,0,1,2.4.07c.4,0,1.08.16.28,0,.42.08.85.15,1.27.24a19.15,19.15,0,0,1,2.13.59c.32.11,1.27.53.46.15.38.18.77.36,1.14.56s.63.36.93.55c.14.09,1,.69.58.38s.38.34.51.45a12.28,12.28,0,0,1,1,1c.12.13.24.27.35.41,0-.07-.39-.61-.15-.16s.43.65.62,1,.35.69.53,1,0-.13-.07-.19c.08.24.18.47.26.71a20,20,0,0,1,.63,2.42c0,.17.21,1.24.14.74s0,.1,0,.18c0,.26.06.53.08.79.59,7-.38,13.9,1.89,20.67a38.85,38.85,0,0,0,11,16.48c11.47,10.21,26.87,13.46,41.88,12.11C141,96.84,156.3,90.7,171.94,85.8c3.91-1.22,7.84-2.36,11.82-3.3q2.84-.68,5.72-1.19c.89-.16,1.78-.31,2.67-.44l.59-.09c.52-.07,1-.14,1.57-.19A73.1,73.1,0,0,1,206,80.16c.89,0,1.78.1,2.66.18l1.33.14.66.08c-.65-.08.06,0,.35,0a50.14,50.14,0,0,1,5.42,1.13,48.45,48.45,0,0,1,5.5,1.81c2.19.87,5-1,5.53-3.14a4.64,4.64,0,0,0-3.14-5.54c-15.14-6-32.13-4.05-47.46.11-15.82,4.31-31,11.08-47.24,13.71l-1.38.21-.69.1c.1,0,.58-.07,0,0-1.08.12-2.16.25-3.24.35-2,.17-4,.27-6,.28s-4-.06-6-.24c-.46,0-.92-.08-1.37-.14l-.69-.08h.06c-1-.17-2.11-.34-3.16-.56a48.11,48.11,0,0,1-5.54-1.48c-.75-.25-1.48-.53-2.22-.81s.53.24-.27-.11c-.39-.18-.78-.35-1.16-.54a41.05,41.05,0,0,1-4.17-2.28c-.68-.41-1.34-.85-2-1.31l-.89-.64-.12-.09-.27-.21A40.24,40.24,0,0,1,87.06,78c-.55-.56-1.08-1.14-1.59-1.73-.24-.27-.46-.55-.69-.83-.06-.06-.44-.53-.1-.11s-.13-.17-.19-.25A34.08,34.08,0,0,1,82,71.14c-.37-.68-.7-1.37-1-2.07s.21.58-.1-.23c-.15-.39-.3-.77-.43-1.17a27.88,27.88,0,0,1-1.18-4.48c-.07-.41-.15-1.32-.07-.41,0-.4-.09-.79-.12-1.19-.08-.94-.11-1.88-.14-2.82-.07-3.5.13-7-.26-10.5-.42-3.84-1.33-7.72-3.68-10.88a20,20,0,0,0-9.35-6.87c-7.41-2.79-15.58-1.06-22.69,1.74-2.09.82-4.16,1.72-6.22,2.61S33.9,39.15,35.11,41c1.45,2.25,3.84,2.62,6.16,1.61Z"/><path class="f623e18d-a426-4666-8abe-b3923622aeba" d="M130.38,19.59c.37,0,.74,0,1.11,0,.84,0,.07,0-.11,0l.54.09c.35.07.7.16,1.05.26l.52.15c.12,0,1.07.38.48.16s.46.22.62.3l1,.53c.37.23.72.47,1.08.71.06,0,.57.4.14.09s.21.17.28.23a21.93,21.93,0,0,1,1.79,1.68c.27.27.53.56.78.84s.33.39.49.58.27.33,0,0a30.93,30.93,0,0,1,2.67,4.22c.44.84.85,1.69,1.25,2.54l.62,1.4s.29.68.11.27l.2.47c.85,2,1.67,4.09,2.53,6.12a45.06,45.06,0,0,0,5.61,10c9.11,11.79,24,16.76,38.46,17.6,8.72.51,17.44-.39,26.11-1.25,7.64-.76,15.29-1.35,23-1.46a195.67,195.67,0,0,1,21.92.89c1.85.18,3.7.4,5.54.63l-.17,0,.61.08,1.43.21q1.42.21,2.85.45,5.37.9,10.66,2.16t10.42,2.93q2.61.84,5.19,1.8,1.14.42,2.28.87l1.32.52.56.23.4.17.21.09.75.32,1.11.49q1.31.59,2.58,1.2,2.38,1.14,4.71,2.38,4.85,2.6,9.41,5.65c1.48,1,2.92,2,4.35,3.07,1.89,1.41,5.1.38,6.15-1.61,1.25-2.36.41-4.65-1.61-6.16a122.92,122.92,0,0,0-39.7-19.12,173.72,173.72,0,0,0-44.55-6.22,219.63,219.63,0,0,0-22.07.76c-8.7.74-17.38,1.9-26.12,2.07-2.19,0-4.39,0-6.58-.09-1,0-2-.11-2.92-.2-.57-.05-1.14-.1-1.7-.17-.33,0-1.49-.19-.55,0a57.91,57.91,0,0,1-10-2.31c-.79-.26-1.56-.54-2.33-.83l-1.06-.43c-.48-.19.15.06.2.09l-.86-.39a43.57,43.57,0,0,1-4.48-2.38c-.64-.39-1.27-.8-1.88-1.22l-1.06-.76c-.42-.29.12.1.17.14l-.58-.46a32.91,32.91,0,0,1-3.64-3.44c-.54-.59-1.07-1.21-1.56-1.84.47.61,0,0-.19-.29-.31-.43-.6-.86-.87-1.3a42.12,42.12,0,0,1-2.76-5.18l-.54-1.19c-.08-.2-.17-.4-.26-.6,0,.09.23.55,0,.07-.39-.94-.77-1.88-1.16-2.83-.83-2-1.67-4.09-2.59-6.1-3.18-6.85-8.3-13.24-15.67-15.75a17.31,17.31,0,0,0-5.67-.86,4.5,4.5,0,0,0,0,9Z"/><path class="a5826f18-03c0-4408-97b6-36345b133e4e" d="M314.39,23.29c.62,0,1.24.06,1.85.12.25,0,2.16.28,1,.1,1.29.21,2.57.44,3.83.77s2.27.63,3.38,1c.58.21,1.16.44,1.74.67-.85-.33-.23-.1,0,0l1.18.54a45.12,45.12,0,0,1,6.53,3.94c.15.11.67.52,0,0l.73.58c.43.35.85.72,1.27,1.09a37.53,37.53,0,0,1,2.9,2.88c.42.46.82.93,1.21,1.41.16.19.32.38.47.58-.58-.73-.05-.07.08.12a37.6,37.6,0,0,1,2.15,3.27c.69,1.2,1.32,2.44,1.89,3.7.12.26.24.53.35.8-.3-.72.05.15.12.33.29.74.57,1.48.82,2.23,1.9,5.53,3,11.28,4.36,16.95,2.7,11.3,7.27,22.22,15.6,30.57,8.11,8.12,19.85,13.41,31.47,12.21,12.4-1.27,23.91-9.6,27.18-22a4.5,4.5,0,1,0-8.68-2.39c-.15.58-.32,1.16-.52,1.72-.07.23-.16.45-.24.68-.39,1.12.42-.82-.11.25a28.9,28.9,0,0,1-1.73,3.13c-.17.24-1.24,1.67-.56.83-.3.38-.61.74-.93,1.1A26.18,26.18,0,0,1,409,93.13l-.7.57c.72-.57.21-.16.05,0-.5.34-1,.7-1.51,1a35.06,35.06,0,0,1-3.19,1.73c-1,.52.59-.21-.09,0l-.85.33c-.56.21-1.14.4-1.72.57a26.94,26.94,0,0,1-3.67.79c.87-.13.16,0,0,0l-1,.09c-.61,0-1.22.06-1.83.07s-1.35,0-2-.06l-.81-.06c-.14,0-1.54-.17-1-.1.69.1-.63-.11-.6-.1l-.8-.15c-.67-.14-1.33-.29-2-.46a40,40,0,0,1-3.88-1.27c-1.23-.45.46.23-.25-.09l-.94-.42c-.55-.27-1.1-.54-1.64-.83a37.13,37.13,0,0,1-3.68-2.23l-.66-.47s-1-.78-.53-.39-.53-.44-.49-.4l-.61-.52a38,38,0,0,1-3.05-2.9c-.88-.92-1.7-1.88-2.51-2.87-.54-.67-.14-.18,0,0-.21-.26-.41-.53-.6-.8-.44-.6-.86-1.2-1.26-1.82a53.7,53.7,0,0,1-3.91-7c-.12-.24-.23-.49-.34-.73l-.25-.58c.25.6-.25-.62-.24-.58l-.29-.75c-.49-1.29-.94-2.59-1.34-3.91-.87-2.79-1.57-5.63-2.23-8.48a137,137,0,0,0-4.38-16.45A46.38,46.38,0,0,0,345.48,29a44.21,44.21,0,0,0-31.09-14.72,4.53,4.53,0,0,0-4.5,4.5,4.58,4.58,0,0,0,4.5,4.5Z"/><path class="e2429151-667a-4f89-85b0-156f2985dc93" d="M188.54,7.35a158.27,158.27,0,0,1,49.7,10.14A160.56,160.56,0,0,1,282.08,42.4,158.52,158.52,0,0,1,303,62.55a3,3,0,0,0,4.24,0,3.07,3.07,0,0,0,0-4.25,164,164,0,0,0-40.3-33.64,167.94,167.94,0,0,0-48.8-19.45,162.81,162.81,0,0,0-29.57-3.86,3,3,0,0,0-3,3,3,3,0,0,0,3,3Z"/><path class="b95961ed-d313-4311-8971-39a5b9520833" d="M114.12,47.82l.95,16.43c.08,1.43,2.33,1.44,2.25,0l-.95-16.43c-.08-1.44-2.33-1.45-2.25,0Z"/><path class="abe20675-fd45-45a3-bc14-17cc82428a52" d="M107.41,57q9.36.38,18.69,1.32c1.44.14,1.43-2.11,0-2.25q-9.33-.95-18.69-1.32C106,54.72,106,57,107.41,57Z"/><path class="acb6f93f-3b46-4d93-9509-04d8ce817548" d="M120,48.83a102.5,102.5,0,0,0-11.11,12.54,1.13,1.13,0,0,0,.4,1.54,1.16,1.16,0,0,0,1.54-.4,98.8,98.8,0,0,1,10.76-12.09c1-1-.55-2.6-1.59-1.59Z"/><path class="f0e9dbb8-c7a4-4991-a9c0-a88aef69e59b" d="M109.58,50.71,121,62.25a1.13,1.13,0,0,0,1.59-1.6L111.17,49.12a1.12,1.12,0,0,0-1.59,1.59Z"/><path class="ed6fbadb-ced0-4b0e-8eef-8d9da60cf615" d="M242.16,81.41l1,16.42c.08,1.44,2.33,1.45,2.25,0l-1-16.42c-.08-1.44-2.33-1.45-2.25,0Z"/><path class="a494278f-bb38-4a7d-bb39-9b718d454cf9" d="M235.45,90.62q9.36.38,18.69,1.32c1.44.14,1.43-2.11,0-2.25q-9.33-.94-18.69-1.32c-1.45-.06-1.45,2.19,0,2.25Z"/><path class="a0487a32-846a-49df-a7ad-609311d1406e" d="M248.07,82.41A103.35,103.35,0,0,0,237,95a1.13,1.13,0,0,0,.4,1.54,1.16,1.16,0,0,0,1.54-.41A99.45,99.45,0,0,1,249.67,84c1-1-.55-2.59-1.6-1.59Z"/><path class="ebd4ccd9-871d-4773-b827-95388ff5be0b" d="M237.62,84.29l11.45,11.54a1.12,1.12,0,0,0,1.59-1.59L239.21,82.7a1.12,1.12,0,0,0-1.59,1.59Z"/><path class="a9abd06f-3c37-4ca8-8345-cc27cb1269c9" d="M215.16,27.41l1,16.42c.08,1.44,2.33,1.45,2.25,0l-1-16.42c-.08-1.44-2.33-1.45-2.25,0Z"/><path class="b1154cb6-5202-48a7-8dc3-55daa2e448e6" d="M208.45,36.62q9.36.38,18.69,1.32c1.44.14,1.43-2.11,0-2.25q-9.33-.94-18.69-1.32c-1.45-.06-1.45,2.19,0,2.25Z"/><path class="ac65cf79-9fcd-4609-af8a-c2eda753117f" d="M221.07,28.41A103.35,103.35,0,0,0,210,41a1.13,1.13,0,0,0,.4,1.54,1.16,1.16,0,0,0,1.54-.41A99.45,99.45,0,0,1,222.67,30c1-1-.55-2.59-1.6-1.59Z"/><path class="b12b95a2-71f0-4167-8f59-07a4dc761a69" d="M210.62,30.29l11.45,11.54a1.12,1.12,0,0,0,1.59-1.59L212.21,28.7a1.12,1.12,0,0,0-1.59,1.59Z"/><path class="a7cf6e2d-7107-4863-8952-6b6cecd0dfda" d="M358.6,102.41l.95,16.42c.08,1.44,2.33,1.45,2.25,0l-.95-16.42c-.08-1.44-2.33-1.45-2.25,0Z"/><path class="b2c7e554-4a57-4468-8075-bba0988531d0" d="M351.89,111.62q9.36.38,18.69,1.32c1.44.14,1.43-2.11,0-2.25q-9.31-.94-18.69-1.32c-1.45-.06-1.44,2.19,0,2.25Z"/><path class="a7a81d98-30d3-41a3-92fc-6f4e147e5d81" d="M364.52,103.41A102.59,102.59,0,0,0,353.41,116a1.13,1.13,0,0,0,.4,1.54,1.16,1.16,0,0,0,1.54-.41A101.16,101.16,0,0,1,366.11,105c1.05-1-.55-2.59-1.59-1.59Z"/><path class="f7d88a52-20fd-411e-ba97-12e3e2ae7be4" d="M354.06,105.29l11.45,11.54a1.12,1.12,0,0,0,1.59-1.59L355.65,103.7c-1-1-2.61.57-1.59,1.59Z"/><path class="a536b23e-0e8a-43ea-845e-922d829fedf7" d="M382,42.41,383,58.83c.08,1.44,2.33,1.45,2.25,0l-.95-16.42C384.21,41,382,41,382,42.41Z"/><path class="b996edeb-ad62-4870-acb7-975bf91f3649" d="M375.33,51.62q9.38.38,18.69,1.32c1.44.14,1.43-2.11,0-2.25q-9.31-.94-18.69-1.32c-1.44-.06-1.44,2.19,0,2.25Z"/><path class="f133838d-51da-4a7f-8192-b78c520a8de5" d="M388,43.41A102.59,102.59,0,0,0,376.85,56a1.13,1.13,0,0,0,.4,1.54,1.16,1.16,0,0,0,1.54-.41A101.16,101.16,0,0,1,389.55,45c1.05-1-.55-2.59-1.59-1.59Z"/><path class="ba9035f5-d60f-49f3-92d4-85794f136176" d="M377.5,45.29,389,56.83a1.12,1.12,0,0,0,1.59-1.59L379.09,43.7c-1-1-2.61.57-1.59,1.59Z"/><path class="b4364d8f-8c50-4a4c-9cac-8584651c2e85" d="M60.65,97.41l1,16.42c.08,1.44,2.34,1.45,2.25,0l-1-16.42c-.08-1.44-2.33-1.45-2.25,0Z"/><path class="ac2120cb-8c3d-436a-808c-15b4056b7bf8" d="M53.94,106.62q9.38.38,18.69,1.32c1.44.14,1.43-2.11,0-2.25q-9.31-.94-18.69-1.32c-1.44-.06-1.44,2.19,0,2.25Z"/><path class="aa7db6d3-702b-46ad-a33b-16dac93c75f0" d="M66.57,98.41A103.43,103.43,0,0,0,55.46,111a1.13,1.13,0,0,0,.4,1.54,1.16,1.16,0,0,0,1.54-.41A101.16,101.16,0,0,1,68.16,100c1-1-.54-2.59-1.59-1.59Z"/><path class="ee67aa00-0c3b-423a-b9a9-0bcf480ff5d1" d="M56.11,100.29l11.45,11.54a1.12,1.12,0,0,0,1.59-1.59L57.7,98.7c-1-1-2.61.57-1.59,1.59Z"/><polyline class="be9c1686-6295-4793-af29-eb87edd6444e" points="186.36 85.08 187.31 84.14 187.31 84.88"/></svg>