<svg id="Layer_1" height="512" viewBox="0 0 64 64" width="512" xmlns="http://www.w3.org/2000/svg" data-name="Layer 1"><g fill="rgb(0,0,0)"><circle cx="32" cy="32" r="11"/><rect height="8" rx="2" width="4" x="30" y="8"/><rect height="8" rx="2" width="4" x="30" y="48"/><rect height="8" rx="2" transform="matrix(0 1 -1 0 84 -20)" width="4" x="50" y="28"/><rect height="8" rx="2" transform="matrix(0 1 -1 0 44 20)" width="4" x="10" y="28"/><rect height="8" rx="2" transform="matrix(-.707 .707 -.707 -.707 111.4 46.14)" width="4" x="44.14" y="42.14"/><rect height="8" rx="2" transform="matrix(-.707 .707 -.707 -.707 43.11 17.86)" width="4" x="15.86" y="13.86"/><rect height="8" rx="2" transform="matrix(-.707 -.707 .707 -.707 -2.14 91.4)" width="4" x="15.86" y="42.14"/><rect height="8" rx="2" transform="matrix(-.707 -.707 .707 -.707 66.14 63.11)" width="4" x="44.14" y="13.86"/></g></svg>