<svg id="Layer_1" height="512" viewBox="0 0 64 64" width="512" xmlns="http://www.w3.org/2000/svg" data-name="Layer 1"><g fill="rgb(0,0,0)"><rect height="6" rx="2" width="4" x="19" y="14"/><rect height="6" rx="2" transform="matrix(0 -1 1 0 -26 38)" width="4" x="4" y="29"/><rect height="6" rx="2" transform="matrix(-.707 -.707 .707 -.707 -12.38 80.08)" width="4" x="8.39" y="39.61"/><rect height="6" rx="2" transform="matrix(-.707 -.707 .707 -.707 38.83 58.87)" width="4" x="29.61" y="18.39"/><rect height="6" rx="2" transform="matrix(-.707 .707 -.707 -.707 32.87 29.17)" width="4" x="8.39" y="18.39"/><path d="m53 29a8.12 8.12 0 0 0 -2.66.46 10 10 0 0 0 -15.4-4.4 12.08 12.08 0 0 1 9.51 6.06 10 10 0 0 1 11.55 9.88 9.89 9.89 0 0 1 -.7 3.66 8 8 0 0 0 -2.3-15.66z"/><path d="m15.18 38.84a8 8 0 0 1 6.82-3.84h.06l.13-.13a12.08 12.08 0 0 1 5.94-8.33 9 9 0 1 0 -12.95 12.3z"/><path d="m46 33a8.12 8.12 0 0 0 -2.66.46 10 10 0 0 0 -19.34 3.54v.36a5.88 5.88 0 0 0 -2-.36 6 6 0 0 0 0 12h24a8 8 0 0 0 0-16z"/></g></svg>