<svg id="Layer_1" height="512" viewBox="0 0 64 64" width="512" xmlns="http://www.w3.org/2000/svg" data-name="Layer 1"><g fill="rgb(0,0,0)"><path d="m47 15a8.12 8.12 0 0 0 -2.66.46 10 10 0 0 0 -18.64-.12 12.09 12.09 0 0 1 7.75 5.78 10 10 0 0 1 11.55 9.88h2a8 8 0 0 0 0-16z"/><path d="m35 23a8.12 8.12 0 0 0 -2.66.46 10 10 0 0 0 -19.34 3.54v.36a5.88 5.88 0 0 0 -2-.36 6 6 0 0 0 0 12h24a8 8 0 0 0 0-16z"/><path d="m13 44h-1a1 1 0 0 1 0-2h1a1 1 0 0 1 0 2z"/><path d="m18 44h-2a1 1 0 1 1 0-2h2a1 1 0 1 1 0 2z"/><path d="m48 44h-27a1 1 0 0 1 0-2h27a3 3 0 1 0 -2.94-3.61 1 1 0 0 1 -1.18.78 1 1 0 0 1 -.78-1.17 5 5 0 1 1 4.9 6z"/><path d="m22 48h-1.08a1 1 0 0 1 0-2h1.08a1 1 0 0 1 0 2z"/><path d="m42 56a5 5 0 0 1 -4.9-4 1 1 0 0 1 .78-1.18 1 1 0 0 1 1.18.78 3 3 0 1 0 2.94-3.6h-17a1 1 0 0 1 0-2h17a5 5 0 0 1 0 10z"/><path d="m55 52a5 5 0 0 1 -4.9-4 1 1 0 0 1 .78-1.18 1 1 0 0 1 1.18.78 3 3 0 1 0 2.94-3.6h-32a1 1 0 0 1 0-2h32a5 5 0 0 1 0 10z"/><path d="m18 48h-.94a1 1 0 0 1 0-2h.94a1 1 0 0 1 0 2z"/></g></svg>