<svg id="Layer_1" height="512" viewBox="0 0 64 64" width="512" xmlns="http://www.w3.org/2000/svg" data-name="Layer 1"><g fill="rgb(0,0,0)"><rect height="6" rx="2" width="4" x="30" y="14"/><rect height="6" rx="2" transform="matrix(0 1 -1 0 77 -15)" width="4" x="44" y="28"/><rect height="6" rx="2" transform="matrix(0 1 -1 0 49 13)" width="4" x="16" y="28"/><rect height="6" rx="2" transform="matrix(-.707 .707 -.707 -.707 52.65 20.39)" width="4" x="20.1" y="18.1"/><rect height="6" rx="2" transform="matrix(-.707 -.707 .707 -.707 56.61 65.65)" width="4" x="39.9" y="18.1"/><path d="m38.92 35a8 8 0 1 0 -13.84 0z"/><path d="m32 52a1 1 0 0 1 -1-1v-12a1 1 0 0 1 2 0v12a1 1 0 0 1 -1 1z"/><path d="m36 44a1 1 0 0 1 -.71-.29l-4-4a1 1 0 0 1 1.42-1.42l4 4a1 1 0 0 1 0 1.42 1 1 0 0 1 -.71.29z"/><path d="m28 44a1 1 0 0 1 -.71-.29 1 1 0 0 1 0-1.42l4-4a1 1 0 0 1 1.42 1.42l-4 4a1 1 0 0 1 -.71.29z"/></g></svg>