<svg id="Layer_1" height="512" viewBox="0 0 64 64" width="512" xmlns="http://www.w3.org/2000/svg" data-name="Layer 1"><g fill="rgb(0,0,0)"><path d="m39.45 31.12a10 10 0 0 1 9 3.25 10 10 0 0 0 3.8-4.64 10 10 0 0 1 -12.25-9.73 9.84 9.84 0 0 1 .73-3.73 10 10 0 0 0 -7.73 9.46 12.06 12.06 0 0 1 6.45 5.39z"/><path d="m41 33a8.12 8.12 0 0 0 -2.66.46 10 10 0 0 0 -19.34 3.54v.36a5.88 5.88 0 0 0 -2-.36 6 6 0 0 0 0 12h24a8 8 0 0 0 0-16z"/><path d="m46.96 19.48 1.21.3-.97.77.08 1.24-1.03-.68-1.15.46.33-1.19-.8-.95 1.24-.06.66-1.05z"/></g></svg>