<svg id="Layer_1" height="512" viewBox="0 0 64 64" width="512" xmlns="http://www.w3.org/2000/svg" data-name="Layer 1"><g fill="rgb(0,0,0)"><path d="m41 41h-27a1 1 0 0 1 0-2h27a3 3 0 1 0 -2.94-3.61 1 1 0 0 1 -2-.4 5 5 0 1 1 4.94 6.01z"/><path d="m15 45h-1.08a1 1 0 0 1 0-2h1.08a1 1 0 1 1 0 2z"/><path d="m35 53a5 5 0 0 1 -4.9-4 1 1 0 0 1 2-.4 3 3 0 1 0 2.9-3.6h-17a1 1 0 0 1 0-2h17a5 5 0 0 1 0 10z"/><path d="m48 49a5 5 0 0 1 -4.9-4 1 1 0 1 1 2-.4 3 3 0 1 0 2.9-3.6h-32a1 1 0 0 1 0-2h32a5 5 0 0 1 0 10z"/><path d="m24 37a1 1 0 0 1 -1-1v-24a1 1 0 0 1 2 0v24a1 1 0 0 1 -1 1z"/><path d="m24 16a1 1 0 0 1 -.71-.29 1 1 0 0 1 0-1.42l3-3a1 1 0 0 1 1.42 1.42l-3 3a1 1 0 0 1 -.71.29z"/><path d="m24 16a1 1 0 0 1 -.71-.29l-3-3a1 1 0 0 1 1.42-1.42l3 3a1 1 0 0 1 0 1.42 1 1 0 0 1 -.71.29z"/><path d="m27 37a1 1 0 0 1 -.71-.29l-3-3a1 1 0 0 1 1.42-1.42l3 3a1 1 0 0 1 0 1.42 1 1 0 0 1 -.71.29z"/><path d="m21 37a1 1 0 0 1 -.71-.29 1 1 0 0 1 0-1.42l3-3a1 1 0 0 1 1.42 1.42l-3 3a1 1 0 0 1 -.71.29z"/><path d="m36 25h-24a1 1 0 0 1 0-2h24a1 1 0 0 1 0 2z"/><path d="m36 28a1 1 0 0 1 -.71-.29l-3-3a1 1 0 0 1 1.42-1.42l3 3a1 1 0 0 1 0 1.42 1 1 0 0 1 -.71.29z"/><path d="m33 25a1 1 0 0 1 -.71-.29 1 1 0 0 1 0-1.42l3-3a1 1 0 0 1 1.42 1.42l-3 3a1 1 0 0 1 -.71.29z"/><path d="m12 28a1 1 0 0 1 -.71-.29 1 1 0 0 1 0-1.42l3-3a1 1 0 0 1 1.42 1.42l-3 3a1 1 0 0 1 -.71.29z"/><path d="m15 25a1 1 0 0 1 -.71-.29l-3-3a1 1 0 0 1 1.42-1.42l3 3a1 1 0 0 1 0 1.42 1 1 0 0 1 -.71.29z"/><path d="m32.49 33.49a1 1 0 0 1 -.71-.3l-17-17a1 1 0 0 1 1.41-1.41l17 17a1 1 0 0 1 0 1.41 1 1 0 0 1 -.7.3z"/><path d="m30.36 35.61a1 1 0 0 1 -1-1v-4.25a1 1 0 0 1 2 0v4.25a1 1 0 0 1 -1 1z"/><path d="m34.61 31.36h-4.25a1 1 0 0 1 0-2h4.25a1 1 0 0 1 0 2z"/><path d="m17.64 18.64h-4.25a1 1 0 0 1 0-2h4.25a1 1 0 0 1 0 2z"/><path d="m17.64 18.64a1 1 0 0 1 -1-1v-4.25a1 1 0 0 1 2 0v4.25a1 1 0 0 1 -1 1z"/><path d="m15.51 33.49a1 1 0 0 1 -.7-.3 1 1 0 0 1 0-1.41l17-17a1 1 0 0 1 1.41 1.41l-17 17a1 1 0 0 1 -.71.3z"/><path d="m17.64 31.36h-4.25a1 1 0 0 1 0-2h4.25a1 1 0 0 1 0 2z"/><path d="m17.64 35.61a1 1 0 0 1 -1-1v-4.25a1 1 0 0 1 2 0v4.25a1 1 0 0 1 -1 1z"/><path d="m30.36 18.64a1 1 0 0 1 -1-1v-4.25a1 1 0 0 1 2 0v4.25a1 1 0 0 1 -1 1z"/><path d="m34.61 18.64h-4.25a1 1 0 0 1 0-2h4.25a1 1 0 0 1 0 2z"/></g></svg>