<svg id="Layer_1" height="512" viewBox="0 0 64 64" width="512" xmlns="http://www.w3.org/2000/svg" data-name="Layer 1"><g fill="rgb(0,0,0)"><path d="m43 21a8.12 8.12 0 0 0 -2.66.46 10 10 0 0 0 -19.34 3.54v.36a5.88 5.88 0 0 0 -2-.36 6 6 0 0 0 0 12h24a8 8 0 0 0 0-16z"/><path d="m21 50a1 1 0 0 1 -1-1v-8a1 1 0 0 1 2 0v8a1 1 0 0 1 -1 1z"/><path d="m25 46h-8a1 1 0 0 1 0-2h8a1 1 0 0 1 0 2z"/><path d="m23.83 48.83a1 1 0 0 1 -.71-.29l-5.66-5.66a1 1 0 0 1 1.42-1.42l5.66 5.66a1 1 0 0 1 0 1.42 1 1 0 0 1 -.71.29z"/><path d="m18.17 48.83a1 1 0 0 1 -.71-.29 1 1 0 0 1 0-1.42l5.66-5.66a1 1 0 0 1 1.42 1.42l-5.66 5.66a1 1 0 0 1 -.71.29z"/><path d="m32 50a1 1 0 0 1 -1-1v-8a1 1 0 0 1 2 0v8a1 1 0 0 1 -1 1z"/><path d="m36 46h-8a1 1 0 0 1 0-2h8a1 1 0 0 1 0 2z"/><path d="m34.83 48.83a1 1 0 0 1 -.71-.29l-5.66-5.66a1 1 0 0 1 1.42-1.42l5.66 5.66a1 1 0 0 1 0 1.42 1 1 0 0 1 -.71.29z"/><path d="m29.17 48.83a1 1 0 0 1 -.71-.29 1 1 0 0 1 0-1.42l5.66-5.66a1 1 0 0 1 1.42 1.42l-5.66 5.66a1 1 0 0 1 -.71.29z"/><path d="m43 50a1 1 0 0 1 -1-1v-8a1 1 0 0 1 2 0v8a1 1 0 0 1 -1 1z"/><path d="m47 46h-8a1 1 0 0 1 0-2h8a1 1 0 0 1 0 2z"/><path d="m45.83 48.83a1 1 0 0 1 -.71-.29l-5.66-5.66a1 1 0 0 1 1.42-1.42l5.66 5.66a1 1 0 0 1 0 1.42 1 1 0 0 1 -.71.29z"/><path d="m40.17 48.83a1 1 0 0 1 -.71-.29 1 1 0 0 1 0-1.42l5.66-5.66a1 1 0 0 1 1.42 1.42l-5.66 5.66a1 1 0 0 1 -.71.29z"/></g></svg>