<svg id="Layer_1" height="512" viewBox="0 0 64 64" width="512" xmlns="http://www.w3.org/2000/svg" data-name="Layer 1"><g fill="rgb(0,0,0)"><rect height="6" rx="2" width="4" x="22" y="10"/><rect height="6" rx="2" transform="matrix(0 -1 1 0 -19 37)" width="4" x="7" y="25"/><rect height="6" rx="2" transform="matrix(-.707 -.707 .707 -.707 -4.44 75.38)" width="4" x="11.39" y="35.61"/><rect height="6" rx="2" transform="matrix(-.707 -.707 .707 -.707 46.78 54.16)" width="4" x="32.61" y="14.39"/><rect height="6" rx="2" transform="matrix(-.707 .707 -.707 -.707 35.16 20.22)" width="4" x="11.39" y="14.39"/><path d="m18.18 34.84a8 8 0 0 1 6.82-3.84h.06l.13-.13a12.08 12.08 0 0 1 5.94-8.33 9 9 0 1 0 -12.95 12.3z"/><path d="m49 29a8.12 8.12 0 0 0 -2.66.46 10 10 0 0 0 -19.34 3.54v.36a5.88 5.88 0 0 0 -2-.36 6 6 0 0 0 0 12h24a8 8 0 0 0 0-16z"/><path d="m23 56a.94.94 0 0 1 -.55-.17 1 1 0 0 1 -.28-1.38l4-6a1 1 0 0 1 1.66 1.1l-4 6a1 1 0 0 1 -.83.45z"/><path d="m29 56a.94.94 0 0 1 -.55-.17 1 1 0 0 1 -.28-1.38l4-6a1 1 0 1 1 1.66 1.1l-4 6a1 1 0 0 1 -.83.45z"/><path d="m35 56a.94.94 0 0 1 -.55-.17 1 1 0 0 1 -.28-1.38l4-6a1 1 0 1 1 1.66 1.1l-4 6a1 1 0 0 1 -.83.45z"/><path d="m41 56a.94.94 0 0 1 -.55-.17 1 1 0 0 1 -.28-1.38l4-6a1 1 0 1 1 1.66 1.1l-4 6a1 1 0 0 1 -.83.45z"/><path d="m47 56a.94.94 0 0 1 -.55-.17 1 1 0 0 1 -.28-1.38l4-6a1 1 0 1 1 1.66 1.1l-4 6a1 1 0 0 1 -.83.45z"/></g></svg>