<svg id="Layer_1" height="512" viewBox="0 0 64 64" width="512" xmlns="http://www.w3.org/2000/svg" data-name="Layer 1"><g fill="rgb(0,0,0)"><path d="m22 37a1 1 0 0 1 -1-1v-22a1 1 0 0 1 2 0v22a1 1 0 0 1 -1 1z"/><path d="m22 18a1 1 0 0 1 -.71-.29 1 1 0 0 1 0-1.42l3-3a1 1 0 0 1 1.42 1.42l-3 3a1 1 0 0 1 -.71.29z"/><path d="m22 18a1 1 0 0 1 -.71-.29l-3-3a1 1 0 0 1 1.42-1.42l3 3a1 1 0 0 1 0 1.42 1 1 0 0 1 -.71.29z"/><path d="m25 37a1 1 0 0 1 -.71-.29l-3-3a1 1 0 0 1 1.42-1.42l3 3a1 1 0 0 1 0 1.42 1 1 0 0 1 -.71.29z"/><path d="m19 37a1 1 0 0 1 -.71-.29 1 1 0 0 1 0-1.42l3-3a1 1 0 0 1 1.42 1.42l-3 3a1 1 0 0 1 -.71.29z"/><path d="m33 26h-22a1 1 0 0 1 0-2h22a1 1 0 0 1 0 2z"/><path d="m33 29a1 1 0 0 1 -.71-.29l-3-3a1 1 0 0 1 1.42-1.42l3 3a1 1 0 0 1 0 1.42 1 1 0 0 1 -.71.29z"/><path d="m30 26a1 1 0 0 1 -.71-.29 1 1 0 0 1 0-1.42l3-3a1 1 0 0 1 1.42 1.42l-3 3a1 1 0 0 1 -.71.29z"/><path d="m11 29a1 1 0 0 1 -.71-.29 1 1 0 0 1 0-1.42l3-3a1 1 0 0 1 1.42 1.42l-3 3a1 1 0 0 1 -.71.29z"/><path d="m14 26a1 1 0 0 1 -.71-.29l-3-3a1 1 0 0 1 1.42-1.42l3 3a1 1 0 0 1 0 1.42 1 1 0 0 1 -.71.29z"/><path d="m29.78 33.78a1 1 0 0 1 -.71-.29l-15.56-15.56a1 1 0 1 1 1.42-1.42l15.56 15.56a1 1 0 0 1 0 1.42 1 1 0 0 1 -.71.29z"/><path d="m27.66 35.9a1 1 0 0 1 -1-1v-4.24a1 1 0 0 1 2 0v4.24a1 1 0 0 1 -1 1z"/><path d="m31.9 31.66h-4.24a1 1 0 0 1 0-2h4.24a1 1 0 0 1 0 2z"/><path d="m16.34 20.34h-4.24a1 1 0 1 1 0-2h4.24a1 1 0 0 1 0 2z"/><path d="m16.34 20.34a1 1 0 0 1 -1-1v-4.24a1 1 0 1 1 2 0v4.24a1 1 0 0 1 -1 1z"/><path d="m14.22 33.78a1 1 0 0 1 -.71-.29 1 1 0 0 1 0-1.42l15.56-15.56a1 1 0 1 1 1.42 1.42l-15.56 15.56a1 1 0 0 1 -.71.29z"/><path d="m16.34 31.66h-4.24a1 1 0 1 1 0-2h4.24a1 1 0 0 1 0 2z"/><path d="m16.34 35.9a1 1 0 0 1 -1-1v-4.24a1 1 0 0 1 2 0v4.24a1 1 0 0 1 -1 1z"/><path d="m27.66 20.34a1 1 0 0 1 -1-1v-4.24a1 1 0 1 1 2 0v4.24a1 1 0 0 1 -1 1z"/><path d="m31.9 20.34h-4.24a1 1 0 0 1 0-2h4.24a1 1 0 0 1 0 2z"/><path d="m42 55a11 11 0 0 1 -6-20.21v-18.79a6 6 0 0 1 12 0v18.79a11 11 0 0 1 -6 20.21zm0-43a4 4 0 0 0 -4 4v19.92l-.5.29a9 9 0 1 0 9 0l-.5-.29v-19.92a4 4 0 0 0 -4-4z"/><path d="m45.5 37.94-1.5-.86v-1.08a2 2 0 0 0 -2-2 2 2 0 0 0 -2 2v1.08l-1.5.86a7 7 0 1 0 7 0z"/><path d="m42 52a8.39 8.39 0 0 1 -1-.06 8 8 0 0 1 -3-14.86l1-.58v-.5a3 3 0 0 1 6 0v.5l1 .58a8 8 0 0 1 -4 14.92zm0-17a1 1 0 0 0 -1 1v1.65l-2 1.16a6 6 0 1 0 6 0l-2-1.16v-1.65a1 1 0 0 0 -1-1z"/></g></svg>