<svg id="Layer_1" height="512" viewBox="0 0 64 64" width="512" xmlns="http://www.w3.org/2000/svg" data-name="Layer 1"><g fill="rgb(0,0,0)"><path d="m20.27 45.87a1 1 0 0 1 -.58-.19 1 1 0 0 1 -.23-1.39l1.65-2.29a1 1 0 0 1 1.63 1.17l-1.66 2.3a1 1 0 0 1 -.81.4z"/><path d="m31.17 45.59a1 1 0 0 1 -.81-1.59l1.64-2.29a1 1 0 1 1 1.62 1.17l-1.62 2.29a1 1 0 0 1 -.83.42z"/><path d="m37.08 45.47a1 1 0 0 1 -.59-.19 1 1 0 0 1 -.22-1.39l1.65-2.3a1 1 0 0 1 1.4-.22 1 1 0 0 1 .22 1.39l-1.65 2.3a1 1 0 0 1 -.81.41z"/><path d="m36 53.35a1 1 0 0 1 -.59-.19 1 1 0 0 1 -.22-1.39l1.65-2.3a1 1 0 0 1 1.4-.22 1 1 0 0 1 .22 1.39l-1.65 2.3a1 1 0 0 1 -.81.41z"/><path d="m24.87 53.34a1 1 0 0 1 -.58-.19 1 1 0 0 1 -.23-1.4l1.65-2.29a1 1 0 0 1 1.63 1.17l-1.66 2.29a1 1 0 0 1 -.81.42z"/><path d="m16.94 52.21a1 1 0 0 1 -.58-.19 1 1 0 0 1 -.23-1.4l1.66-2.29a1 1 0 0 1 1.39-.23 1 1 0 0 1 .23 1.4l-1.66 2.29a1 1 0 0 1 -.81.42z"/><path d="m42.85 53.09a1 1 0 0 1 -.58-.19 1 1 0 0 1 -.27-1.4l1.66-2.29a1 1 0 0 1 1.43-.21 1 1 0 0 1 .23 1.4l-1.66 2.29a1 1 0 0 1 -.81.4z"/><path d="m13 49a.94.94 0 0 1 -.55-.17 1 1 0 0 1 -.28-1.38l4-6a1 1 0 0 1 1.66 1.1l-4 6a1 1 0 0 1 -.83.45z"/><path d="m23 50a.94.94 0 0 1 -.55-.17 1 1 0 0 1 -.28-1.38l4-6a1 1 0 0 1 1.66 1.1l-4 6a1 1 0 0 1 -.83.45z"/><path d="m30 54a.94.94 0 0 1 -.55-.17 1 1 0 0 1 -.28-1.38l4-6a1 1 0 1 1 1.66 1.1l-4 6a1 1 0 0 1 -.83.45z"/><path d="m41 49a.94.94 0 0 1 -.55-.17 1 1 0 0 1 -.28-1.38l4-6a1 1 0 1 1 1.66 1.1l-4 6a1 1 0 0 1 -.83.45z"/><path d="m48 18a8.12 8.12 0 0 0 -2.66.46 10 10 0 0 0 -16.23-3.7 12.13 12.13 0 0 1 6.34 5.36 10 10 0 0 1 11.55 9.88 9.92 9.92 0 0 1 -.84 4h1.84a8 8 0 0 0 0-16z"/><path d="m37 22a8.12 8.12 0 0 0 -2.66.46 10 10 0 0 0 -19.34 3.54v.36a5.88 5.88 0 0 0 -2-.36 6 6 0 0 0 0 12h24a8 8 0 0 0 0-16z"/></g></svg>