<svg id="Layer_1" height="512" viewBox="0 0 64 64" width="512" xmlns="http://www.w3.org/2000/svg" data-name="Layer 1"><g fill="rgb(0,0,0)"><rect height="6" rx="2" width="4" x="20" y="17"/><rect height="6" rx="2" transform="matrix(0 1 -1 0 70 -2)" width="4" x="34" y="31"/><rect height="6" rx="2" transform="matrix(0 1 -1 0 42 26)" width="4" x="6" y="31"/><rect height="6" rx="2" transform="matrix(-.707 .707 -.707 -.707 37.7 32.59)" width="4" x="10.1" y="21.1"/><rect height="6" rx="2" transform="matrix(-.707 -.707 .707 -.707 37.41 63.7)" width="4" x="29.9" y="21.1"/><path d="m28.92 38a8 8 0 1 0 -13.84 0z"/><path d="m51 42h-36a1 1 0 0 1 0-2h36a1 1 0 0 1 0 2z"/><path d="m56 48h-43a1 1 0 0 1 0-2h43a1 1 0 0 1 0 2z"/><path d="m59 45h-50a1 1 0 0 1 0-2h50a1 1 0 0 1 0 2z"/></g></svg>