<svg id="Layer_1" height="512" viewBox="0 0 64 64" width="512" xmlns="http://www.w3.org/2000/svg" data-name="Layer 1"><g fill="rgb(0,0,0)"><path d="m15 30h-1a1 1 0 0 1 0-2h1a1 1 0 0 1 0 2z"/><path d="m20 30h-2a1 1 0 1 1 0-2h2a1 1 0 1 1 0 2z"/><path d="m40 30h-17a1 1 0 0 1 0-2h17a3 3 0 1 0 -2.94-3.61 1 1 0 1 1 -2-.4 5 5 0 1 1 4.94 6.01z"/><path d="m25 36h-1.08a1 1 0 0 1 0-2h1.08a1 1 0 0 1 0 2z"/><path d="m34 44a5 5 0 0 1 -4.9-4 1 1 0 1 1 2-.4 3 3 0 1 0 2.9-3.6h-6a1 1 0 0 1 0-2h6a5 5 0 0 1 0 10z"/><path d="m45 41a5 5 0 0 1 -4.9-4 1 1 0 1 1 2-.4 3 3 0 1 0 2.9-3.6h-21.08a1 1 0 0 1 0-2h21.08a5 5 0 0 1 0 10z"/><path d="m21 33h-.94a1 1 0 0 1 0-2h.94a1 1 0 0 1 0 2z"/></g></svg>