<svg id="Layer_1" height="512" viewBox="0 0 64 64" width="512" xmlns="http://www.w3.org/2000/svg" data-name="Layer 1"><g fill="rgb(0,0,0)"><path d="m19 49h-1.08a1 1 0 0 1 0-2h1.08a1 1 0 0 1 0 2z"/><path d="m45 45h-27a1 1 0 0 1 0-2h27a3 3 0 1 0 -2.94-3.61 1 1 0 1 1 -2-.4 5 5 0 1 1 4.94 6.01z"/><path d="m39 57a5 5 0 0 1 -4.9-4 1 1 0 1 1 2-.4 3 3 0 1 0 2.9-3.6h-17a1 1 0 0 1 0-2h17a5 5 0 0 1 0 10z"/><path d="m52 53a5 5 0 0 1 -4.9-4 1 1 0 1 1 2-.4 3 3 0 1 0 2.9-3.6h-32a1 1 0 0 1 0-2h32a5 5 0 0 1 0 10z"/><circle cx="26" cy="24" r="8"/><rect height="6" rx="2" width="4" x="24" y="7"/><rect height="6" rx="2" width="4" x="24" y="35"/><rect height="6" rx="2" transform="matrix(0 1 -1 0 64 -16)" width="4" x="38" y="21"/><rect height="6" rx="2" transform="matrix(0 1 -1 0 36 12)" width="4" x="10" y="21"/><rect height="6" rx="2" transform="matrix(-.707 .707 -.707 -.707 85.25 32.49)" width="4" x="33.9" y="30.9"/><rect height="6" rx="2" transform="matrix(-.707 .707 -.707 -.707 37.46 12.69)" width="4" x="14.1" y="11.1"/><rect height="6" rx="2" transform="matrix(-.707 -.707 .707 -.707 3.51 69.25)" width="4" x="14.1" y="30.9"/><rect height="6" rx="2" transform="matrix(-.707 -.707 .707 -.707 51.31 49.46)" width="4" x="33.9" y="11.1"/></g></svg>