<svg id="Layer_1" height="512" viewBox="0 0 64 64" width="512" xmlns="http://www.w3.org/2000/svg" data-name="Layer 1"><g fill="rgb(0,0,0)"><path d="m43 22a8.12 8.12 0 0 0 -2.66.46 10 10 0 0 0 -19.34 3.54v.36a5.88 5.88 0 0 0 -2-.36 6 6 0 0 0 0 12h24a8 8 0 0 0 0-16z"/><path d="m19 44a1 1 0 0 1 -.71-.29 1 1 0 0 1 0-1.42l2-2a1 1 0 0 1 1.42 1.42l-2 2a1 1 0 0 1 -.71.29z"/><path d="m27 44a1 1 0 0 1 -.71-.29 1 1 0 0 1 0-1.42l2-2a1 1 0 0 1 1.42 1.42l-2 2a1 1 0 0 1 -.71.29z"/><path d="m34 44a1 1 0 0 1 -.71-.29 1 1 0 0 1 0-1.42l2-2a1 1 0 0 1 1.42 1.42l-2 2a1 1 0 0 1 -.71.29z"/><path d="m41 44a1 1 0 0 1 -.71-.29 1 1 0 0 1 0-1.42l2-2a1 1 0 0 1 1.42 1.42l-2 2a1 1 0 0 1 -.71.29z"/><path d="m22 48a1 1 0 0 1 -.71-.29 1 1 0 0 1 0-1.42l2-2a1 1 0 0 1 1.42 1.42l-2 2a1 1 0 0 1 -.71.29z"/><path d="m29 49a1 1 0 0 1 -.71-.29 1 1 0 0 1 0-1.42l2-2a1 1 0 0 1 1.42 1.42l-2 2a1 1 0 0 1 -.71.29z"/><path d="m36 49a1 1 0 0 1 -.71-.29 1 1 0 0 1 0-1.42l2-2a1 1 0 0 1 1.42 1.42l-2 2a1 1 0 0 1 -.71.29z"/></g></svg>