<svg id="Layer_1" height="512" viewBox="0 0 64 64" width="512" xmlns="http://www.w3.org/2000/svg" data-name="Layer 1"><g fill="rgb(0,0,0)"><path d="m38 53a.94.94 0 0 1 -.55-.17 1 1 0 0 1 -.28-1.38l4-6a1 1 0 1 1 1.66 1.1l-4 6a1 1 0 0 1 -.83.45z"/><path d="m44 53a.94.94 0 0 1 -.55-.17 1 1 0 0 1 -.28-1.38l4-6a1 1 0 1 1 1.66 1.1l-4 6a1 1 0 0 1 -.83.45z"/><path d="m12 53a.94.94 0 0 1 -.55-.17 1 1 0 0 1 -.28-1.38l4-6a1 1 0 0 1 1.66 1.1l-4 6a1 1 0 0 1 -.83.45z"/><path d="m18 53a.94.94 0 0 1 -.55-.17 1 1 0 0 1 -.28-1.38l4-6a1 1 0 0 1 1.66 1.1l-4 6a1 1 0 0 1 -.83.45z"/><path d="m49 18a8.12 8.12 0 0 0 -2.66.46 10 10 0 0 0 -18.64-.12 12.09 12.09 0 0 1 7.75 5.78 10 10 0 0 1 11.55 9.88h2a8 8 0 0 0 0-16z"/><path d="m37 26a8.12 8.12 0 0 0 -2.66.46 10 10 0 0 0 -19.34 3.54v.36a5.88 5.88 0 0 0 -2-.36 6 6 0 0 0 0 12h24a8 8 0 0 0 0-16z"/><path d="m30 54a1 1 0 0 1 -1-1v-8a1 1 0 0 1 2 0v8a1 1 0 0 1 -1 1z"/><path d="m34 50h-8a1 1 0 0 1 0-2h8a1 1 0 0 1 0 2z"/><path d="m32.83 52.83a1 1 0 0 1 -.71-.29l-5.66-5.66a1 1 0 0 1 1.42-1.42l5.66 5.66a1 1 0 0 1 0 1.42 1 1 0 0 1 -.71.29z"/><path d="m27.17 52.83a1 1 0 0 1 -.71-.29 1 1 0 0 1 0-1.42l5.66-5.66a1 1 0 0 1 1.42 1.42l-5.66 5.66a1 1 0 0 1 -.71.29z"/></g></svg>