<svg id="Layer_1" height="512" viewBox="0 0 64 64" width="512" xmlns="http://www.w3.org/2000/svg" data-name="Layer 1"><g fill="rgb(0,0,0)"><rect height="6" rx="2" width="4" x="23" y="15"/><rect height="6" rx="2" transform="matrix(0 -1 1 0 -23 43)" width="4" x="8" y="30"/><rect height="6" rx="2" transform="matrix(-.707 -.707 .707 -.707 -6.26 84.62)" width="4" x="12.39" y="40.61"/><rect height="6" rx="2" transform="matrix(-.707 -.707 .707 -.707 44.95 63.41)" width="4" x="33.61" y="19.39"/><rect height="6" rx="2" transform="matrix(-.707 .707 -.707 -.707 40.41 28.05)" width="4" x="12.39" y="19.39"/><path d="m19.18 39.84a8 8 0 0 1 6.82-3.84h.06l.13-.13a12.08 12.08 0 0 1 5.94-8.33 9 9 0 1 0 -13 12.3z"/><path d="m50 34a8.12 8.12 0 0 0 -2.66.46 10 10 0 0 0 -19.34 3.54v.36a5.88 5.88 0 0 0 -2-.36 6 6 0 0 0 0 12h24a8 8 0 0 0 0-16z"/></g></svg>