<svg id="Layer_1" height="512" viewBox="0 0 64 64" width="512" xmlns="http://www.w3.org/2000/svg" data-name="Layer 1"><g fill="rgb(0,0,0)"><path d="m43 21a8.12 8.12 0 0 0 -2.66.46 10 10 0 0 0 -19.34 3.54v.36a5.88 5.88 0 0 0 -2-.36 6 6 0 0 0 0 12h8.38l1-2h-5.38l7.5-10h7.58l-4 5h5.2l-6.46 7h10.18a8 8 0 0 0 0-16z"/><path d="m31 26-6 8h5l-5 10 12-13h-5l4-5z"/><path d="m18 48a.94.94 0 0 1 -.55-.17 1 1 0 0 1 -.28-1.38l4-6a1 1 0 0 1 1.66 1.1l-4 6a1 1 0 0 1 -.83.45z"/><path d="m30 48a.94.94 0 0 1 -.55-.17 1 1 0 0 1 -.28-1.38l4-6a1 1 0 1 1 1.66 1.1l-4 6a1 1 0 0 1 -.83.45z"/><path d="m36 48a.94.94 0 0 1 -.55-.17 1 1 0 0 1 -.28-1.38l4-6a1 1 0 1 1 1.66 1.1l-4 6a1 1 0 0 1 -.83.45z"/><path d="m42 48a.94.94 0 0 1 -.55-.17 1 1 0 0 1 -.28-1.38l4-6a1 1 0 1 1 1.66 1.1l-4 6a1 1 0 0 1 -.83.45z"/></g></svg>