<svg id="Layer_1" height="512" viewBox="0 0 64 64" width="512" xmlns="http://www.w3.org/2000/svg" data-name="Layer 1"><g fill="rgb(0,0,0)"><path d="m28 14a1 1 0 0 1 -1-1v-4a1 1 0 0 1 2 0v4a1 1 0 0 1 -1 1z"/><path d="m28 40a1 1 0 0 1 -1-1v-4a1 1 0 0 1 2 0v4a1 1 0 0 1 -1 1z"/><path d="m17 25h-4a1 1 0 0 1 0-2h4a1 1 0 0 1 0 2z"/><path d="m20.22 17.22a1 1 0 0 1 -.71-.29l-2.82-2.83a1 1 0 0 1 1.41-1.41l2.83 2.82a1 1 0 0 1 0 1.42 1 1 0 0 1 -.71.29z"/><path d="m17.39 35.61a1 1 0 0 1 -.7-.3 1 1 0 0 1 0-1.41l2.82-2.83a1 1 0 0 1 1.42 1.42l-2.83 2.82a1 1 0 0 1 -.71.3z"/><path d="m31 16.59a7.9 7.9 0 0 0 -3-.59 8 8 0 0 0 0 16 7.9 7.9 0 0 0 3-.59z"/><path d="m40 56a11 11 0 0 1 -6-20.21v-18.79a6 6 0 0 1 12 0v18.79a11 11 0 0 1 -6 20.21zm0-43a4 4 0 0 0 -4 4v19.92l-.5.29a9 9 0 1 0 9 0l-.5-.29v-19.92a4 4 0 0 0 -4-4z"/><path d="m40 52a7 7 0 0 1 -3.5-13.06l1.5-.86v-21.08a2 2 0 0 1 4 0v21.08l1.5.86a7 7 0 0 1 -3.5 13.06z"/><path d="m40 53a8 8 0 0 1 -4-14.92l1-.58v-20.5a3 3 0 0 1 6 0v20.5l1 .58a8 8 0 0 1 -4 14.92zm0-37a1 1 0 0 0 -1 1v21.65l-2 1.16a6 6 0 1 0 6 0l-2-1.16v-21.65a1 1 0 0 0 -1-1z"/></g></svg>