<svg id="Layer_1" height="512" viewBox="0 0 64 64" width="512" xmlns="http://www.w3.org/2000/svg" data-name="Layer 1"><g fill="rgb(0,0,0)"><path d="m32.45 23.12a10 10 0 0 1 9 3.25 10 10 0 0 0 3.8-4.64 10 10 0 0 1 -12.25-9.73 9.84 9.84 0 0 1 .73-3.73 10 10 0 0 0 -7.73 9.46 12.06 12.06 0 0 1 6.45 5.39z"/><path d="m34 25a8.12 8.12 0 0 0 -2.66.46 10 10 0 0 0 -19.34 3.54v.36a5.88 5.88 0 0 0 -2-.36 6 6 0 0 0 0 12h24a8 8 0 0 0 0-16z"/><path d="m39.96 11.48 1.21.3-.97.77.08 1.24-1.03-.68-1.15.46.33-1.19-.8-.95 1.24-.06.66-1.05z"/><path d="m13 46h-1a1 1 0 0 1 0-2h1a1 1 0 0 1 0 2z"/><path d="m18 46h-2a1 1 0 1 1 0-2h2a1 1 0 1 1 0 2z"/><path d="m48 46h-27a1 1 0 0 1 0-2h27a3 3 0 1 0 -2.94-3.61 1 1 0 0 1 -1.18.78 1 1 0 0 1 -.78-1.17 5 5 0 1 1 4.9 6z"/><path d="m22 50h-1.08a1 1 0 0 1 0-2h1.08a1 1 0 0 1 0 2z"/><path d="m42 58a5 5 0 0 1 -4.9-4 1 1 0 0 1 .78-1.18 1 1 0 0 1 1.18.78 3 3 0 1 0 2.94-3.6h-17a1 1 0 0 1 0-2h17a5 5 0 0 1 0 10z"/><path d="m55 54a5 5 0 0 1 -4.9-4 1 1 0 0 1 .78-1.18 1 1 0 0 1 1.18.78 3 3 0 1 0 2.94-3.6h-32a1 1 0 0 1 0-2h32a5 5 0 0 1 0 10z"/><path d="m18 50h-.94a1 1 0 0 1 0-2h.94a1 1 0 0 1 0 2z"/></g></svg>