<svg id="Layer_1" height="512" viewBox="0 0 64 64" width="512" xmlns="http://www.w3.org/2000/svg" data-name="Layer 1"><g fill="rgb(0,0,0)"><rect height="6" rx="2" width="4" x="23" y="9"/><rect height="6" rx="2" transform="matrix(0 -1 1 0 -17 37)" width="4" x="8" y="24"/><rect height="6" rx="2" transform="matrix(-.707 -.707 .707 -.707 -2.02 74.38)" width="4" x="12.39" y="34.61"/><rect height="6" rx="2" transform="matrix(-.707 -.707 .707 -.707 49.19 53.16)" width="4" x="33.61" y="13.39"/><rect height="6" rx="2" transform="matrix(-.707 .707 -.707 -.707 36.16 17.81)" width="4" x="12.39" y="13.39"/><path d="m19.18 33.84a8 8 0 0 1 6.82-3.84h.06l.13-.13a12.08 12.08 0 0 1 5.94-8.33 9 9 0 1 0 -13 12.3z"/><path d="m50 28a8.12 8.12 0 0 0 -2.66.46 10 10 0 0 0 -19.34 3.54v.36a5.88 5.88 0 0 0 -2-.36 6 6 0 0 0 0 12h9.38l1-2h-5.38l7.5-10h7.58l-4 5h5.2l-6.46 7h9.18a8 8 0 0 0 0-16z"/><path d="m39 33-6 8h5l-5 10 12-13h-5l4-5z"/></g></svg>