<svg id="Layer_1" height="512" viewBox="0 0 64 64" width="512" xmlns="http://www.w3.org/2000/svg" data-name="Layer 1"><g fill="rgb(0,0,0)"><path d="m32 53a1 1 0 0 1 -1-1v-40a1 1 0 0 1 2 0v40a1 1 0 0 1 -1 1z"/><path d="m32 17a1 1 0 0 1 -.71-.29 1 1 0 0 1 0-1.42l4-4a1 1 0 0 1 1.42 1.42l-4 4a1 1 0 0 1 -.71.29z"/><path d="m32 17a1 1 0 0 1 -.71-.29l-4-4a1 1 0 0 1 1.42-1.42l4 4a1 1 0 0 1 0 1.42 1 1 0 0 1 -.71.29z"/><path d="m32 23a1 1 0 0 1 -.71-.29 1 1 0 0 1 0-1.42l4-4a1 1 0 0 1 1.42 1.42l-4 4a1 1 0 0 1 -.71.29z"/><path d="m32 23a1 1 0 0 1 -.71-.29l-4-4a1 1 0 0 1 1.42-1.42l4 4a1 1 0 0 1 0 1.42 1 1 0 0 1 -.71.29z"/><path d="m36 53a1 1 0 0 1 -.71-.29l-4-4a1 1 0 0 1 1.42-1.42l4 4a1 1 0 0 1 0 1.42 1 1 0 0 1 -.71.29z"/><path d="m28 53a1 1 0 0 1 -.71-.29 1 1 0 0 1 0-1.42l4-4a1 1 0 0 1 1.42 1.42l-4 4a1 1 0 0 1 -.71.29z"/><path d="m36 47a1 1 0 0 1 -.71-.29l-4-4a1 1 0 0 1 1.42-1.42l4 4a1 1 0 0 1 0 1.42 1 1 0 0 1 -.71.29z"/><path d="m28 47a1 1 0 0 1 -.71-.29 1 1 0 0 1 0-1.42l4-4a1 1 0 0 1 1.42 1.42l-4 4a1 1 0 0 1 -.71.29z"/><path d="m52 33h-40a1 1 0 0 1 0-2h40a1 1 0 0 1 0 2z"/><path d="m52 37a1 1 0 0 1 -.71-.29l-4-4a1 1 0 0 1 1.42-1.42l4 4a1 1 0 0 1 0 1.42 1 1 0 0 1 -.71.29z"/><path d="m48 33a1 1 0 0 1 -.71-.29 1 1 0 0 1 0-1.42l4-4a1 1 0 0 1 1.42 1.42l-4 4a1 1 0 0 1 -.71.29z"/><path d="m46 37a1 1 0 0 1 -.71-.29l-4-4a1 1 0 0 1 1.42-1.42l4 4a1 1 0 0 1 0 1.42 1 1 0 0 1 -.71.29z"/><path d="m42 33a1 1 0 0 1 -.71-.29 1 1 0 0 1 0-1.42l4-4a1 1 0 0 1 1.42 1.42l-4 4a1 1 0 0 1 -.71.29z"/><path d="m12 37a1 1 0 0 1 -.71-.29 1 1 0 0 1 0-1.42l4-4a1 1 0 0 1 1.42 1.42l-4 4a1 1 0 0 1 -.71.29z"/><path d="m16 33a1 1 0 0 1 -.71-.29l-4-4a1 1 0 0 1 1.42-1.42l4 4a1 1 0 0 1 0 1.42 1 1 0 0 1 -.71.29z"/><path d="m18 37a1 1 0 0 1 -.71-.29 1 1 0 0 1 0-1.42l4-4a1 1 0 0 1 1.42 1.42l-4 4a1 1 0 0 1 -.71.29z"/><path d="m22 33a1 1 0 0 1 -.71-.29l-4-4a1 1 0 0 1 1.42-1.42l4 4a1 1 0 0 1 0 1.42 1 1 0 0 1 -.71.29z"/><path d="m46.14 47.14a1 1 0 0 1 -.7-.29l-28.29-28.29a1 1 0 1 1 1.41-1.41l28.29 28.29a1 1 0 0 1 0 1.41 1 1 0 0 1 -.71.29z"/><path d="m43.31 50a1 1 0 0 1 -1-1v-5.69a1 1 0 0 1 2 0v5.69a1 1 0 0 1 -1 1z"/><path d="m49 44.31h-5.69a1 1 0 0 1 0-2h5.69a1 1 0 0 1 0 2z"/><path d="m39.07 45.73a1 1 0 0 1 -1-1v-5.66a1 1 0 0 1 2 0v5.66a1 1 0 0 1 -1 1z"/><path d="m44.73 40.07h-5.66a1 1 0 0 1 0-2h5.66a1 1 0 0 1 0 2z"/><path d="m20.69 21.69h-5.69a1 1 0 1 1 0-2h5.66a1 1 0 0 1 0 2z"/><path d="m20.69 21.69a1 1 0 0 1 -1-1v-5.69a1 1 0 1 1 2 0v5.66a1 1 0 0 1 -1 1.03z"/><path d="m24.93 25.93h-5.66a1 1 0 0 1 0-2h5.66a1 1 0 0 1 0 2z"/><path d="m24.93 25.93a1 1 0 0 1 -1-1v-5.66a1 1 0 0 1 2 0v5.66a1 1 0 0 1 -1 1z"/><path d="m17.86 47.14a1 1 0 0 1 -.71-.29 1 1 0 0 1 0-1.41l28.29-28.29a1 1 0 0 1 1.41 1.41l-28.29 28.29a1 1 0 0 1 -.7.29z"/><path d="m20.69 44.31h-5.69a1 1 0 0 1 0-2h5.66a1 1 0 0 1 0 2z"/><path d="m20.69 50a1 1 0 0 1 -1-1v-5.69a1 1 0 0 1 2 0v5.69a1 1 0 0 1 -1 1z"/><path d="m24.93 40.07h-5.66a1 1 0 0 1 0-2h5.66a1 1 0 0 1 0 2z"/><path d="m24.93 45.73a1 1 0 0 1 -1-1v-5.66a1 1 0 0 1 2 0v5.66a1 1 0 0 1 -1 1z"/><path d="m43.31 21.69a1 1 0 0 1 -1-1v-5.69a1 1 0 0 1 2 0v5.66a1 1 0 0 1 -1 1.03z"/><path d="m49 21.69h-5.69a1 1 0 0 1 0-2h5.69a1 1 0 0 1 0 2z"/><path d="m39.07 25.93a1 1 0 0 1 -1-1v-5.66a1 1 0 0 1 2 0v5.66a1 1 0 0 1 -1 1z"/><path d="m44.73 25.93h-5.66a1 1 0 0 1 0-2h5.66a1 1 0 0 1 0 2z"/></g></svg>